HIERARCHY
ROOT Hips
{
    OFFSET 0.000000 0.000000 0.000000
    CHANNELS 6 Xposition Yposition Zposition Zrotation Xrotation Yrotation
    JOINT Spine
    {
        OFFSET -0.000000 14.517291 0.000000
        CHANNELS 3 Zrotation Xrotation Yrotation
        JOINT Spine1
        {
            OFFSET -0.000000 37.558300 0.000000
            CHANNELS 3 Zrotation Xrotation Yrotation
            JOINT Neck
            {
                OFFSET -0.000000 37.404057 3.400369
                CHANNELS 3 Zrotation Xrotation Yrotation
                JOINT Head
                {
                    OFFSET -0.000000 24.785618 -3.540803
                    CHANNELS 3 Zrotation Xrotation Yrotation
                    End Site
                    {
                        OFFSET -0.000000 35.408028 0.000000
                    }
                }
            }
            JOINT LeftShoulder
            {
                OFFSET 6.992933 33.973492 -0.192664
                CHANNELS 3 Zrotation Xrotation Yrotation
                JOINT LeftArm
                {
                    OFFSET 21.527611 0.000000 0.000000
                    CHANNELS 3 Zrotation Xrotation Yrotation
                    JOINT LeftForeArm
                    {
                        OFFSET 56.353916 0.000000 0.000000
                        CHANNELS 3 Zrotation Xrotation Yrotation
                        JOINT LeftHand
                        {
                            OFFSET 47.774071 0.000000 0.000000
                            CHANNELS 3 Zrotation Xrotation Yrotation
                            End Site
                            {
                                OFFSET 26.556021 0.000000 0.000000
                            }
                        }
                    }
                }
            }
            JOINT RightShoulder
            {
                OFFSET -7.065357 33.973492 -0.192664
                CHANNELS 3 Zrotation Xrotation Yrotation
                JOINT RightArm
                {
                    OFFSET -21.527611 0.000000 0.000000
                    CHANNELS 3 Zrotation Xrotation Yrotation
                    JOINT RightForeArm
                    {
                        OFFSET -56.353916 0.000000 0.000000
                        CHANNELS 3 Zrotation Xrotation Yrotation
                        JOINT RightHand
                        {
                            OFFSET -47.774071 0.000000 0.000000
                            CHANNELS 3 Zrotation Xrotation Yrotation
                            End Site
                            {
                                OFFSET -26.556021 0.000000 0.000000
                            }
                        }
                    }
                }
            }
        }
    }
    JOINT LeftUpLeg
    {
        OFFSET 17.704014 0.000000 0.000000
        CHANNELS 3 Zrotation Xrotation Yrotation
        JOINT LeftLeg
        {
            OFFSET -0.000000 -81.181816 0.000000
            CHANNELS 3 Zrotation Xrotation Yrotation
            JOINT LeftFoot
            {
                OFFSET -0.000000 -62.821102 0.000000
                CHANNELS 3 Zrotation Xrotation Yrotation
                JOINT LeftToeBase
                {
                    OFFSET -0.000000 -11.507608 26.556021
                    CHANNELS 3 Zrotation Xrotation Yrotation
                    End Site
                    {
                        OFFSET -0.000000 0.000000 7.081605
                    }
                }
            }
        }
    }
    JOINT RightUpLeg
    {
        OFFSET -17.704014 0.000000 0.000000
        CHANNELS 3 Zrotation Xrotation Yrotation
        JOINT RightLeg
        {
            OFFSET -0.000000 -81.181816 0.000000
            CHANNELS 3 Zrotation Xrotation Yrotation
            JOINT RightFoot
            {
                OFFSET -0.000000 -62.821102 0.000000
                CHANNELS 3 Zrotation Xrotation Yrotation
                JOINT RightToeBase
                {
                    OFFSET -0.000000 -11.507608 26.556021
                    CHANNELS 3 Zrotation Xrotation Yrotation
                    End Site
                    {
                        OFFSET -0.000000 0.000000 7.081605
                    }
                }
            }
        }
    }
}
MOTION
Frames:    5
Frame Time:    0.008333
-1.051145    159.391449    -26.734507    1.383643    -1.806766    -27.687395    -0.196934    -0.680789    0.099102    0.450925    -0.385573    0.033285    11.738112    -1.882357    11.746626    -3.115442    5.717725    9.994040    8.043060    -2.076780    -20.779367    -17.488005    -24.411306    -53.068401    49.434395    -45.155972    -28.325846    -25.892172    -23.307951    -53.610874    -4.056594    6.424622    -1.251209    37.950207    11.171997    70.912659    0.453436    -10.397604    108.348122    5.742929    -10.164855    17.111864    11.948792    -12.620236    -2.843024    -8.656628    4.962795    7.314019    -7.084714    8.584933    22.857353    0.000000    0.000000    0.000000    -9.765696    11.278466    -2.749746    5.067303    10.041076    -0.470547    3.493345    -17.329681    -22.072727    0.000000    0.000000    0.000000    
-1.039317    159.394226    -26.743320    1.380535    -1.802320    -27.682865    -0.191812    -0.676616    0.099105    0.452925    -0.395385    0.033673    11.752414    -1.889125    11.750881    -3.141752    5.737750    9.993529    8.035519    -2.067565    -20.769392    -17.513863    -24.436209    -53.073204    49.372292    -45.154797    -28.379494    -25.869926    -23.316542    -53.589195    -4.059567    6.430787    -1.250311    37.948372    11.163563    70.920204    0.459172    -10.385041    108.345871    5.749139    -10.158555    17.123859    11.947904    -12.622967    -2.829415    -8.649141    4.956010    7.299210    -7.107395    8.588988    22.862112    0.000000    0.000000    0.000000    -9.764078    11.265503    -2.747849    5.075340    10.053701    -0.462070    3.501630    -17.334822    -22.101360    0.000000    0.000000    0.000000    
-1.026559    159.393494    -26.750931    1.383325    -1.801858    -27.671457    -0.198144    -0.678602    0.098472    0.456727    -0.390993    0.033599    11.735579    -1.892868    11.749660    -3.113912    5.727888    9.996962    8.032833    -2.070178    -20.761814    -17.533375    -24.438442    -53.083313    49.361111    -45.148357    -28.385887    -25.849030    -23.322775    -53.574120    -4.066672    6.416224    -1.249969    37.952377    11.172016    70.910080    0.456411    -10.382785    108.349045    5.758868    -10.150959    17.126373    11.937084    -12.625658    -2.828840    -8.639469    4.940363    7.294916    -7.097703    8.608022    22.852020    0.000000    0.000000    0.000000    -9.767504    11.261545    -2.731722    5.082915    10.054070    -0.482661    3.471658    -17.331467    -22.104801    0.000000    0.000000    0.000000    
-1.017567    159.392792    -26.755508    1.378172    -1.801534    -27.661037    -0.187462    -0.680616    0.093833    0.445668    -0.388771    0.031229    11.721725    -1.894047    11.748797    -3.088352    5.731441    10.000675    8.024680    -2.059266    -20.755060    -17.514938    -24.424072    -53.077408    49.390053    -45.161861    -28.351677    -25.823471    -23.367407    -53.548000    -4.060355    6.425995    -1.242725    37.943634    11.161778    70.920227    0.453587    -10.379033    108.340759    5.717497    -10.150266    17.111214    11.933747    -12.620815    -2.822331    -8.627307    4.927059    7.273458    -7.098342    8.614857    22.849632    0.000000    0.000000    0.000000    -9.761501    11.263318    -2.748589    5.079751    10.055717    -0.463879    3.491418    -17.339691    -22.125872    0.000000    0.000000    0.000000    
-1.003987    159.392548    -26.763624    1.380110    -1.797117    -27.651909    -0.186635    -0.683128    0.090224    0.446665    -0.393088    0.032020    11.713974    -1.892771    11.752831    -3.080421    5.730493    10.007007    8.012226    -2.056951    -20.748911    -17.523130    -24.419994    -53.080387    49.410439    -45.132030    -28.325941    -25.812122    -23.340294    -53.547195    -4.071360    6.430748    -1.236138    37.969158    11.142835    70.911980    0.466961    -10.331206    108.340218    5.682088    -10.127116    17.086508    11.928891    -12.623898    -2.818911    -8.622563    4.908259    7.285969    -7.097547    8.631197    22.819929    0.000000    0.000000    0.000000    -9.764518    11.255433    -2.765556    5.085602    10.054406    -0.467311    3.494468    -17.332844    -22.132343    0.000000    0.000000    0.000000    
